<svg version="1.1" xmlns="http://www.w3.org/2000/svg" xmlns:xlink="http://www.w3.org/1999/xlink" width="172.17978" height="81.0071" viewBox="0,0,172.17978,81.0071"><defs><linearGradient x1="153.90997" y1="179.99954" x2="326.08974" y2="179.99954" gradientUnits="userSpaceOnUse" id="color-1"><stop offset="0" stop-color="#fbb040"/><stop offset="1" stop-color="#f15a29"/></linearGradient><linearGradient x1="160.37087" y1="179.99799" x2="319.62726" y2="179.99799" gradientUnits="userSpaceOnUse" id="color-2"><stop offset="0" stop-color="#ed7340"/><stop offset="0.5181" stop-color="#f4aa46"/><stop offset="1" stop-color="#f29746"/></linearGradient></defs><g transform="translate(-153.91011,-139.49645)"><g data-paper-data="{&quot;isPaintingLayer&quot;:true}" fill-rule="nonzero" stroke="none" stroke-width="1" stroke-linecap="butt" stroke-linejoin="miter" stroke-miterlimit="10" stroke-dasharray="" stroke-dashoffset="0" style="mix-blend-mode: normal"><path d="M326.08989,180c0,22.33242 -16.83057,40.50355 -37.5151,40.50355h-97.15387c-20.6831,0 -37.5108,-18.16959 -37.5108,-40.50355c0,-22.33397 16.82627,-40.50355 37.5108,-40.50355h97.15387c20.68453,0 37.51367,18.16804 37.5151,40.50355z" fill="url(#color-1)"/><path d="M319.62741,179.9969c0,18.51817 -13.90208,33.52728 -31.05262,33.52728h-97.15387c-17.14911,0 -31.04975,-15.00912 -31.04975,-33.52728v0c0,-18.51507 13.90065,-33.52574 31.04975,-33.52574h97.15387c17.14911,0 31.05262,15.01067 31.05262,33.52574z" fill="url(#color-2)"/><text transform="translate(171.72753,168.1846) scale(0.34136,0.34136)" font-size="40" xml:space="preserve" fill="#ffea00" fill-rule="nonzero" stroke="none" stroke-width="1" stroke-linecap="butt" stroke-linejoin="miter" stroke-miterlimit="10" stroke-dasharray="" stroke-dashoffset="0" font-family="Sans Serif" font-weight="normal" text-anchor="start" style="mix-blend-mode: normal"><tspan x="0" dy="0">注意！</tspan><tspan x="0" dy="46.15px">你的游玩时间已结束，</tspan><tspan x="0" dy="46.15px">请下次再来！</tspan></text></g></g></svg>